<svg width="20" height="20" viewBox="0 0 20 20" fill="none" xmlns="http://www.w3.org/2000/svg">
<path d="M14.2084 16.9C13.4084 17.6917 12.5084 18.3333 11.5167 18.3333C10.5501 18.3333 10.2334 17.7333 9.08339 17.7333C7.92506 17.7333 7.57506 18.3167 6.65006 18.3333C5.69173 18.3333 4.70006 17.6333 3.88339 16.7917C2.20839 15.075 1.32506 11.9333 2.70006 9.575C3.39173 8.39167 4.59173 7.65 5.91673 7.65C6.91673 7.65 7.86673 8.33334 8.47506 8.33334C9.08339 8.33334 10.2334 7.51667 11.4167 7.64167C12.6501 7.69167 13.6167 8.14167 14.2584 9.075C11.6751 10.625 12.0917 13.9583 14.7001 15.25C14.2001 16.4833 13.4001 17.7583 12.5417 18.5667L14.2084 16.9M10.0251 6.04167C10.0084 4.275 11.4751 2.775 13.2251 2.675C13.3417 4.68334 11.4751 6.225 10.0251 6.04167V6.04167" fill="#F1F5F9"/>
</svg>
