<svg width="40" height="40" viewBox="0 0 40 40" fill="none" xmlns="http://www.w3.org/2000/svg">
<rect width="40" height="40" rx="8" fill="#EC5B13"/>
<path d="M28.5781 22.8594L29.9844 24.3125L27.875 26.4219L29.2812 27.875L27.875 29.2812L26.4219 27.875L24.3125 29.9844L22.8594 28.5781L21.4531 29.9844L20 28.5781L23.5625 25.0156L14.9844 16.4375L11.4219 20L10.0156 18.5469L11.4219 17.1406L10.0156 15.6875L12.125 13.5781L10.7188 12.125L12.125 10.7188L13.5781 12.125L15.6875 10.0156L17.1406 11.4219L18.5469 10.0156L20 11.4219L16.4375 14.9844L25.0156 23.5625L28.5781 20L29.9844 21.4531L28.5781 22.8594V22.8594" fill="white"/>
</svg>
