<svg width="27" height="50" viewBox="0 0 27 50" fill="none" xmlns="http://www.w3.org/2000/svg">
<path d="M25.5 22.0117V20.5L19.4883 24.2617L13.4766 20.5V22.0117L19.4883 25.7383L25.5 22.0117V22.0117M25.5 18.9883C25.8984 18.9883 26.2441 19.1406 26.5371 19.4453C26.8301 19.75 26.9766 20.1016 26.9766 20.5V29.5C26.9766 29.8984 26.8301 30.25 26.5371 30.5547C26.2441 30.8594 25.8984 31.0117 25.5 31.0117H13.4766C13.0781 31.0117 12.7324 30.8594 12.4395 30.5547C12.1465 30.25 12 29.8984 12 29.5V20.5C12 20.1016 12.1465 19.75 12.4395 19.4453C12.7324 19.1406 13.0781 18.9883 13.4766 18.9883H25.5V18.9883" fill="#94A3B8"/>
</svg>
