<svg width="29" height="37" viewBox="0 0 29 37" fill="none" xmlns="http://www.w3.org/2000/svg">
<path d="M8.15625 15.5H8.26172C8.87109 15.5 9.39844 15.7227 9.84375 16.168C10.2891 16.6133 10.5117 17.1406 10.5117 17.75V17.8906L8.15625 15.5V15.5M4.92188 16.0977C4.64062 16.6602 4.5 17.2109 4.5 17.75C4.5 18.7812 4.86914 19.666 5.60742 20.4043C6.3457 21.1426 7.23047 21.5117 8.26172 21.5117C8.80078 21.5117 9.35156 21.3711 9.91406 21.0898L8.75391 19.9297C8.56641 19.9766 8.40234 20 8.26172 20C7.65234 20 7.125 19.7773 6.67969 19.332C6.23438 18.8867 6.01172 18.3594 6.01172 17.75C6.01172 17.6094 6.03516 17.4453 6.08203 17.2578L4.92188 16.0977V16.0977M0.773438 11.9492L1.72266 11L15.0117 24.2891L14.0625 25.2383C13.9453 25.1211 13.5762 24.7578 12.9551 24.1484C12.334 23.5391 11.8594 23.0703 11.5312 22.7422C10.5234 23.1641 9.43359 23.375 8.26172 23.375C6.41016 23.375 4.73438 22.8594 3.23438 21.8281C1.73438 20.7969 0.65625 19.4375 0 17.75C0.257812 17.1406 0.662109 16.4668 1.21289 15.7285C1.76367 14.9902 2.29688 14.4219 2.8125 14.0234C2.53125 13.7422 2.13867 13.3438 1.63477 12.8281C1.13086 12.3125 0.84375 12.0195 0.773438 11.9492V11.9492M8.26172 13.9883C7.79297 13.9883 7.33594 14.082 6.89062 14.2695L5.27344 12.6523C6.1875 12.3008 7.18359 12.125 8.26172 12.125C10.1133 12.125 11.7832 12.6406 13.2715 13.6719C14.7598 14.7031 15.832 16.0625 16.4883 17.75C15.9258 19.1328 15.0703 20.3164 13.9219 21.3008L11.7422 19.1211C11.9297 18.6758 12.0234 18.2188 12.0234 17.75C12.0234 16.7188 11.6543 15.834 10.916 15.0957C10.1777 14.3574 9.29297 13.9883 8.26172 13.9883V13.9883" fill="#94A3B8"/>
</svg>
