<svg width="25" height="50" viewBox="0 0 25 50" fill="none" xmlns="http://www.w3.org/2000/svg">
<path d="M20.332 22.3984V20.8867C20.332 20.2539 20.1035 19.709 19.6465 19.252C19.1895 18.7949 18.6445 18.5664 18.0117 18.5664C17.3789 18.5664 16.834 18.7949 16.377 19.252C15.9199 19.709 15.6914 20.2539 15.6914 20.8867V22.3984H20.332V22.3984M16.957 28.6914C17.2617 28.9961 17.6133 29.1484 18.0117 29.1484C18.4102 29.1484 18.7617 28.9961 19.0664 28.6914C19.3711 28.3867 19.5234 28.0352 19.5234 27.6367C19.5234 27.2383 19.3711 26.8867 19.0664 26.582C18.7617 26.2773 18.4102 26.125 18.0117 26.125C17.6133 26.125 17.2617 26.2773 16.957 26.582C16.6523 26.8867 16.5 27.2383 16.5 27.6367C16.5 28.0352 16.6523 28.3867 16.957 28.6914V28.6914M22.5117 22.3984C22.9102 22.3984 23.2617 22.5449 23.5664 22.8379C23.8711 23.1309 24.0234 23.4766 24.0234 23.875V31.3984C24.0234 31.7969 23.8711 32.1426 23.5664 32.4355C23.2617 32.7285 22.9102 32.875 22.5117 32.875H13.5117C13.1133 32.875 12.7617 32.7285 12.457 32.4355C12.1523 32.1426 12 31.7969 12 31.3984V23.875C12 23.4766 12.1523 23.1309 12.457 22.8379C12.7617 22.5449 13.1133 22.3984 13.5117 22.3984H14.25V20.8867C14.25 19.8555 14.6191 18.9707 15.3574 18.2324C16.0957 17.4941 16.9805 17.125 18.0117 17.125C19.043 17.125 19.9277 17.4941 20.666 18.2324C21.4043 18.9707 21.7734 19.8555 21.7734 20.8867V22.3984H22.5117V22.3984" fill="#94A3B8"/>
</svg>
