<svg width="254" height="40" viewBox="0 0 254 40" fill="none" xmlns="http://www.w3.org/2000/svg">
<path d="M78.8152 14.6676C78.7299 13.7301 78.3507 13.0014 77.6774 12.4815C77.0126 11.9531 76.0623 11.6889 74.8265 11.6889C74.0083 11.6889 73.3265 11.7955 72.7811 12.0085C72.2356 12.2216 71.8265 12.5156 71.5538 12.8906C71.2811 13.2571 71.1404 13.679 71.1319 14.1562C71.1149 14.5483 71.1916 14.8935 71.362 15.1918C71.541 15.4901 71.7967 15.7543 72.1291 15.9844C72.47 16.206 72.8791 16.402 73.3564 16.5724C73.8336 16.7429 74.3706 16.892 74.9672 17.0199L77.2172 17.5312C78.5126 17.8125 79.6547 18.1875 80.6433 18.6562C81.6404 19.125 82.4757 19.6832 83.149 20.331C83.8308 20.9787 84.3464 21.7244 84.6958 22.5682C85.0453 23.4119 85.2243 24.358 85.2328 25.4062C85.2243 27.0597 84.8066 28.4787 83.9799 29.6634C83.1532 30.848 81.9643 31.7557 80.4132 32.3864C78.8706 33.017 77.0083 33.3324 74.8265 33.3324C72.6362 33.3324 70.7271 33.0043 69.0993 32.348C67.4714 31.6918 66.2058 30.6946 65.3024 29.3565C64.399 28.0185 63.9345 26.3267 63.9089 24.2812H69.9686C70.0197 25.125 70.2456 25.8281 70.6461 26.3906C71.0467 26.9531 71.5964 27.3793 72.2953 27.669C73.0027 27.9588 73.8208 28.1037 74.7498 28.1037C75.6021 28.1037 76.3265 27.9886 76.9231 27.7585C77.5282 27.5284 77.9927 27.2088 78.3166 26.7997C78.6404 26.3906 78.8066 25.9219 78.8152 25.3935C78.8066 24.8991 78.6532 24.4773 78.3549 24.1278C78.0566 23.7699 77.5964 23.4631 76.9743 23.2074C76.3606 22.9432 75.5765 22.7003 74.622 22.4787L71.8862 21.8395C69.6191 21.3196 67.8336 20.4801 66.5297 19.321C65.2257 18.1534 64.5779 16.5767 64.5865 14.5909C64.5779 12.9716 65.0126 11.5526 65.8904 10.3338C66.7683 9.11506 67.9828 8.16477 69.5339 7.48295C71.085 6.80114 72.8535 6.46023 74.8393 6.46023C76.8677 6.46023 78.6277 6.8054 80.1191 7.49574C81.6191 8.17756 82.7825 9.13636 83.6092 10.3722C84.4359 11.608 84.8578 13.0398 84.8748 14.6676H78.8152ZM88.4288 33V6.81818H94.7569V17.3267H105.074V6.81818H111.389V33H105.074V22.4787H94.7569V33H88.4288ZM115.358 33V6.81818H133.614V11.9574H121.687V17.3267H132.681V22.4787H121.687V27.8608H133.614V33H115.358Z" fill="white"/>
<path d="M137.577 33V6.81818H155.449V11.9574H143.905V17.3267H154.312V22.4787H143.905V33H137.577ZM164.964 6.81818V33H158.636V6.81818H164.964ZM168.08 11.9574V6.81818H190.209V11.9574H182.27V33H176.032V11.9574H168.08Z" fill="#F97316"/>
</svg>
