<svg width="25" height="50" viewBox="0 0 25 50" fill="none" xmlns="http://www.w3.org/2000/svg">
<path d="M14.0566 27.3379C15.4277 26.7871 16.7461 26.5117 18.0117 26.5117C19.2773 26.5117 20.5957 26.7871 21.9668 27.3379C23.3379 27.8887 24.0234 28.6094 24.0234 29.5V31.0117H12V29.5C12 28.6094 12.6855 27.8887 14.0566 27.3379V27.3379M20.1211 24.1211C19.5352 24.707 18.832 25 18.0117 25C17.1914 25 16.4883 24.707 15.9023 24.1211C15.3164 23.5352 15.0234 22.832 15.0234 22.0117C15.0234 21.1914 15.3164 20.4824 15.9023 19.8848C16.4883 19.2871 17.1914 18.9883 18.0117 18.9883C18.832 18.9883 19.5352 19.2871 20.1211 19.8848C20.707 20.4824 21 21.1914 21 22.0117C21 22.832 20.707 23.5352 20.1211 24.1211V24.1211" fill="#94A3B8"/>
</svg>
